<svg xmlns="http://www.w3.org/2000/svg" xmlns:xlink="http://www.w3.org/1999/xlink" version="1.1" x="0px" y="0px" viewBox="0 0 100 125" enable-background="new 0 0 100 100" xml:space="preserve">
	<g>
		<g>
			<path fill="#000000" d="M71.7,2.2c-0.6-0.8-2-1-2.8-0.3L51.2,15.8L33.5,1.8c-0.8-0.7-2.1-0.5-2.8,0.3C30,3,30.2,4.3,31,4.9    l18.7,14.7c0.4,0.3,0.8,0.4,1.2,0.4c0.1,0,0.2,0,0.3,0c0.1,0,0.2,0,0.3,0c0.4,0,0.8-0.1,1.2-0.4L71.4,4.9    C72.3,4.3,72.4,3,71.7,2.2z"/>

			<polygon points="30.3,73.5 30.3,79.1 72.5,79.1 72.5,73.5   " fill="red" />

			<g>
				<rect x="48.6" y="64.1" width="5.6" height="12.1"/>
			</g>

			<path d="M84.2,17.1H18.6c-4.1,0-7.5,3.2-7.5,7.1v33.6c0,3.9,3.3,7.1,7.5,7.1l65.6,0c4.1,0,7.5-3.2,7.5-7.1V24.2    C91.7,20.3,88.3,17.1,84.2,17.1z M86.1,57.9c0,1-0.9,1.8-1.9,1.8H18.6c-1,0-1.9-0.8-1.9-1.8V24.2c0-1,0.9-1.8,1.9-1.8h65.6    c1,0,1.9,0.8,1.9,1.8V57.9z"/>
		</g>
	</g>
</svg>