<svg xmlns="http://www.w3.org/2000/svg" xmlns:xlink="http://www.w3.org/1999/xlink" version="1.1" x="0px" y="0px" viewBox="0 0 100 125" enable-background="new 0 0 100 100" xml:space="preserve">
	<path d="M92.5,11.25h-85c-1.381,0-2.5,1.119-2.5,2.5v50c0,1.381,1.119,2.5,2.5,2.5h29.45l-1.753,8.769l-9.464,9.464  c-0.715,0.715-0.929,1.79-0.542,2.725c0.387,0.934,1.298,1.543,2.31,1.543h45c0.008,0.001,0.015,0.001,0.02,0  c1.381,0,2.5-1.119,2.5-2.5c0-0.786-0.362-1.488-0.93-1.946l-9.287-9.286l-1.754-8.768H92.5c1.381,0,2.5-1.119,2.5-2.5v-50  C95,12.369,93.881,11.25,92.5,11.25z M33.536,83.75l5-5h22.929l5,5H33.536z M59.45,73.75H40.549l1.5-7.5H57.95L59.45,73.75z   M90,61.25H10v-45h80V61.25z" fill="red" stroke="white" />
</svg>